<svg width="103" height="102" viewBox="0 0 103 102" fill="none" xmlns="http://www.w3.org/2000/svg">
<path d="M21.1726 69.1723L0 47.9996L47.9996 0L69.1723 21.1726L63.5155 26.827L47.9996 11.3123L11.3123 47.9996L26.827 63.5155L21.1726 69.1723Z" fill="white"/>
<path d="M32.8301 80.8274L54.0027 102L102.002 54.0004L80.8297 32.8277L75.1753 38.4845L90.69 54.0004L54.0027 90.6877L38.4868 75.173L32.8301 80.8274Z" fill="white"/>
<path d="M51.6558 77.3906L77.3177 51.7323C77.7083 51.3418 77.7083 50.7086 77.3178 50.318L51.8347 24.8314C51.4442 24.4408 50.811 24.4407 50.4204 24.8313L24.7585 50.4895C24.3679 50.8801 24.3679 51.5133 24.7584 51.9038L50.2415 77.3905C50.632 77.7811 51.2652 77.7812 51.6558 77.3906Z" fill="url(#paint0_linear_248_1069)"/>
<path d="M38.136 56H36.064V46.228H39.844C40.32 46.228 40.7447 46.3027 41.118 46.452C41.4913 46.592 41.804 46.7973 42.056 47.068C42.3173 47.3387 42.5133 47.6653 42.644 48.048C42.7747 48.4307 42.84 48.86 42.84 49.336C42.84 50.0267 42.6907 50.6193 42.392 51.114C42.0933 51.6087 41.6687 51.9353 41.118 52.094L43.036 56H40.74L39.102 52.374H38.136V56ZM39.34 50.75C39.8347 50.75 40.1753 50.6567 40.362 50.47C40.558 50.2833 40.656 49.9753 40.656 49.546V49.126C40.656 48.6967 40.558 48.3887 40.362 48.202C40.1753 48.0153 39.8347 47.922 39.34 47.922H38.136V50.75H39.34ZM44.0945 56V46.228H50.3385V47.95H46.1945V50.19H50.1985V51.912H46.1945V54.278H50.3385V56H44.0945ZM57.0391 56L56.4231 53.648H53.7491L53.1471 56H51.0191L53.6651 46.228H56.6331L59.2791 56H57.0391ZM55.1491 48.258H55.0371L54.0851 51.954H56.1011L55.1491 48.258ZM59.8196 46.228H62.9696C64.2856 46.228 65.2609 46.648 65.8956 47.488C66.5303 48.328 66.8476 49.5367 66.8476 51.114C66.8476 52.6913 66.5303 53.9 65.8956 54.74C65.2609 55.58 64.2856 56 62.9696 56H59.8196V46.228ZM62.8296 54.348C63.4549 54.348 63.9123 54.1473 64.2016 53.746C64.4909 53.3447 64.6356 52.7613 64.6356 51.996V50.218C64.6356 49.462 64.4909 48.8833 64.2016 48.482C63.9123 48.0807 63.4549 47.88 62.8296 47.88H61.8916V54.348H62.8296Z" fill="white"/>
<defs>
<linearGradient id="paint0_linear_248_1069" x1="50.9486" y1="78.0977" x2="64.9452" y2="62.9687" gradientUnits="userSpaceOnUse">
<stop stop-color="#CE1C2D"/>
<stop offset="1" stop-color="#FF0000"/>
</linearGradient>
</defs>
</svg>
