<svg width="97" height="96" viewBox="0 0 97 96" fill="none" xmlns="http://www.w3.org/2000/svg">
<path d="M22.3797 68.4649C21.9892 68.8555 21.356 68.8556 20.9654 68.465L1.20711 48.7067C0.816582 48.3162 0.816583 47.683 1.20711 47.2925L47.7925 0.707105C48.183 0.316581 48.8162 0.316583 49.2067 0.707107L68.965 20.4654C69.3556 20.856 69.3555 21.4892 68.9649 21.8797L64.7226 26.1202C64.332 26.5106 63.699 26.5105 63.3085 26.1201L49.2067 12.0194C48.8162 11.6289 48.1831 11.6289 47.7925 12.0194L12.5194 47.2925C12.1289 47.6831 12.1289 48.3162 12.5194 48.7067L26.6201 62.8085C27.0105 63.199 27.0106 63.832 26.6202 64.2226L22.3797 68.4649Z" fill="white"/>
<path d="M28.0352 74.1203C27.6445 74.5108 27.6445 75.1441 28.035 75.5346L47.7933 95.2929C48.1838 95.6834 48.817 95.6834 49.2075 95.2929L95.7929 48.7075C96.1835 48.317 96.1835 47.6838 95.7929 47.2933L76.0347 27.535C75.6441 27.1444 75.0108 27.1445 74.6203 27.5352L70.3798 31.7774C69.9895 32.168 69.9895 32.801 70.38 33.1915L84.4807 47.2933C84.8712 47.6838 84.8712 48.317 84.4807 48.7075L49.2075 83.9806C48.817 84.3711 48.1838 84.3712 47.7933 83.9807L33.6915 69.8799C33.301 69.4895 32.668 69.4894 32.2775 69.8798L28.0352 74.1203Z" fill="white"/>
</svg>
