<svg width="103" height="102" viewBox="0 0 103 102" fill="none" xmlns="http://www.w3.org/2000/svg">
<path d="M21.1726 69.1723L0 47.9996L47.9996 0L69.1723 21.1726L63.5155 26.827L47.9996 11.3123L11.3123 47.9996L26.827 63.5155L21.1726 69.1723Z" fill="white"/>
<path d="M32.8301 80.8274L54.0027 102L102.002 54.0004L80.8297 32.8278L75.1753 38.4845L90.69 54.0004L54.0027 90.6877L38.4868 75.173L32.8301 80.8274Z" fill="white"/>
<path d="M51.6309 77.3654L77.2928 51.7071C77.6834 51.3166 77.6834 50.6834 77.2929 50.2928L51.8098 24.8061C51.4193 24.4155 50.7861 24.4155 50.3955 24.806L24.7336 50.4643C24.343 50.8548 24.343 51.488 24.7335 51.8786L50.2166 77.3653C50.6071 77.7559 51.2403 77.7559 51.6309 77.3654Z" fill="#FFFF01"/>
<path d="M37.136 56H35.064V46.228H38.844C39.32 46.228 39.7447 46.3027 40.118 46.452C40.4913 46.592 40.804 46.7973 41.056 47.068C41.3173 47.3387 41.5133 47.6653 41.644 48.048C41.7747 48.4307 41.84 48.86 41.84 49.336C41.84 50.0267 41.6907 50.6193 41.392 51.114C41.0933 51.6087 40.6687 51.9353 40.118 52.094L42.036 56H39.74L38.102 52.374H37.136V56ZM38.34 50.75C38.8347 50.75 39.1753 50.6567 39.362 50.47C39.558 50.2833 39.656 49.9753 39.656 49.546V49.126C39.656 48.6967 39.558 48.3887 39.362 48.202C39.1753 48.0153 38.8347 47.922 38.34 47.922H37.136V50.75H38.34ZM43.5145 56V46.228H49.7585V47.95H45.6145V50.19H49.6185V51.912H45.6145V54.278H49.7585V56H43.5145ZM56.8791 56L56.2631 53.648H53.5891L52.9871 56H50.8591L53.5051 46.228H56.4731L59.1191 56H56.8791ZM54.9891 48.258H54.8771L53.9251 51.954H55.9411L54.9891 48.258ZM60.0796 46.228H63.2296C64.5456 46.228 65.5209 46.648 66.1556 47.488C66.7903 48.328 67.1076 49.5367 67.1076 51.114C67.1076 52.6913 66.7903 53.9 66.1556 54.74C65.5209 55.58 64.5456 56 63.2296 56H60.0796V46.228ZM63.0896 54.348C63.7149 54.348 64.1723 54.1473 64.4616 53.746C64.7509 53.3447 64.8956 52.7613 64.8956 51.996V50.218C64.8956 49.462 64.7509 48.8833 64.4616 48.482C64.1723 48.0807 63.7149 47.88 63.0896 47.88H62.1516V54.348H63.0896Z" fill="#1C1A1A"/>
</svg>
