<svg width="96" height="96" viewBox="0 0 96 96" fill="none" xmlns="http://www.w3.org/2000/svg">
<path d="M21.1726 69.1723L0 47.9996L47.9996 0L69.1723 21.1726L63.5155 26.827L47.9996 11.3123L11.3123 47.9996L26.827 63.5155L21.1726 69.1723Z" fill="white"/>
<path d="M26.8278 74.8274L48.0004 96L96 48.0004L74.8274 26.8277L69.173 32.4845L84.6877 48.0004L48.0004 84.6877L32.4845 69.173L26.8278 74.8274Z" fill="white"/>
<path d="M48.6975 72.6645L72.6589 48.7064C73.0495 48.3159 73.0495 47.6827 72.659 47.2921L48.7009 23.3307C48.3104 22.9401 47.6772 22.9401 47.2866 23.3306L23.3252 47.2886C22.9346 47.6792 22.9346 48.3124 23.3251 48.7029L47.2832 72.6644C47.6737 73.0549 48.3069 73.055 48.6975 72.6645Z" fill="url(#paint0_linear_205_218)"/>
<defs>
<linearGradient id="paint0_linear_205_218" x1="60.6782" y1="60.6854" x2="46.6851" y2="73.7578" gradientUnits="userSpaceOnUse">
<stop stop-color="#088CC9"/>
<stop offset="1" stop-color="#1D3CBF"/>
</linearGradient>
</defs>
</svg>
